<?xml version="1.0" encoding="UTF-8"?><svg id="a" xmlns="http://www.w3.org/2000/svg" viewBox="0 0 50.58 25.36"><defs><style>.b{fill:#817976;}</style></defs><g><circle cx="11.76" cy="12.68" r="4.03"/><path class="b" d="M11.76,.47H.5C.22,.47,0,.69,0,.97V24.39c0,.28,.22,.5,.5,.5H11.76c6.75,0,12.21-5.47,12.21-12.21h0C23.97,5.94,18.5,.47,11.76,.47Zm0,19.07c-3.79,0-6.86-3.07-6.86-6.86s3.07-6.86,6.86-6.86,6.86,3.07,6.86,6.86-3.07,6.86-6.86,6.86Z"/></g><polygon points="38.76 17.34 33.7 13.01 35.65 10.73 38.55 13.21 47.04 4.31 49.21 6.38 38.76 17.34"/><path class="b" d="M38.66,25.36c-1.29,0-2.59-.2-3.86-.6-4.15-1.32-7.32-4.62-8.48-9.03-.31-1.18-.43-2.41-.36-3.63C26.46,3.63,34.45-1.61,41.99,.45c.27,.07,.43,.37,.34,.64l-1.21,3.82c-.08,.25-.35,.39-.61,.32-3.9-.98-7.95,1.24-9.18,5.12-.62,1.95-.45,4.03,.5,5.86,.94,1.82,2.54,3.17,4.49,3.79,1.95,.62,4.03,.45,5.86-.5,1.68-.87,2.95-2.29,3.63-4.04,.1-.25,.36-.39,.62-.31l3.82,1.22c.27,.09,.42,.38,.33,.65-1.09,3-3.24,5.45-6.09,6.93-1.83,.94-3.81,1.42-5.81,1.42Z"/></svg>